<?xml version="1.0" standalone="no"?><!DOCTYPE svg PUBLIC "-//W3C//DTD SVG 1.1//EN" "http://www.w3.org/Graphics/SVG/1.1/DTD/svg11.dtd"><svg class="icon" width="200px" height="200.00px" viewBox="0 0 1024 1024" version="1.1" xmlns="http://www.w3.org/2000/svg"><path fill="#ffffff" d="M285.376 320.64H843.84a48 48 0 1 1 0 96H184.32a54.4 54.4 0 0 1-38.336-93.056l174.976-173.44a48 48 0 1 1 67.584 68.224L285.44 320.64z m452.096 381.888H178.944a48 48 0 0 1 0-96h659.584a54.4 54.4 0 0 1 38.272 93.056L701.824 872.96a48 48 0 1 1-67.52-68.224l103.168-102.208z"  /></svg>